<svg width="1102" height="200" viewBox="0 0 1102 200" fill="none" xmlns="http://www.w3.org/2000/svg">
<g clip-path="url(#clip0_413_1484)">
<g clip-path="url(#clip1_413_1484)">
<g clip-path="url(#clip2_413_1484)">
<g clip-path="url(#clip3_413_1484)">
<g clip-path="url(#clip4_413_1484)">
<g clip-path="url(#clip5_413_1484)">
<g clip-path="url(#clip6_413_1484)">
<g clip-path="url(#clip7_413_1484)">
<path d="M388.379 101.771V32.4611H400.063V62.8583H436.797V32.4611H448.481V101.771H436.797V72.7597H400.063V101.771H388.379ZM466.006 101.771V49.1944H477.294V101.771H466.006ZM471.65 27.5104C473.565 27.5104 475.149 28.1375 476.403 29.3916C477.657 30.6458 478.284 32.23 478.284 34.1443C478.284 35.9926 477.657 37.557 476.403 38.8376C475.149 40.1313 473.565 40.7782 471.65 40.7782C469.802 40.7782 468.231 40.1313 466.937 38.8376C465.657 37.557 465.016 35.9926 465.016 34.1443C465.016 32.23 465.657 30.6458 466.937 29.3916C468.231 28.1375 469.802 27.5104 471.65 27.5104ZM507.494 36.7187V85.1364C507.494 87.9748 507.989 89.9023 508.979 90.9189C509.969 91.9486 511.355 92.4635 513.137 92.4635C514.326 92.4635 515.56 92.2654 516.841 91.8694C518.134 91.4733 519.54 90.8792 521.059 90.0871L523.93 98.3053C521.884 99.5595 519.771 100.53 517.593 101.216C515.415 101.916 513.203 102.266 510.959 102.266C508.319 102.266 505.876 101.751 503.632 100.721C501.388 99.7047 499.586 98.0743 498.226 95.8299C496.879 93.5856 496.206 90.6812 496.206 87.1167V36.7187H507.494ZM488.78 59.1948V51.0757H523.039V59.1948H488.78ZM544.109 49.1944V78.8986C544.109 82.9911 545.198 86.2058 547.377 88.5425C549.555 90.8924 552.559 92.0674 556.387 92.0674C560.942 91.9354 564.493 90.2522 567.041 87.0177C569.576 83.7833 570.843 79.7897 570.843 75.037H573.913C573.913 81.5059 573.022 86.7207 571.239 90.6812C569.457 94.6418 566.936 97.5264 563.675 99.335C560.401 101.157 556.519 102.101 552.03 102.167C548.004 102.167 544.558 101.342 541.693 99.6915C538.815 98.0413 536.604 95.6979 535.059 92.6615C533.502 89.6251 532.723 86.0276 532.723 81.869V49.1944H544.109ZM570.843 101.771V49.1944H582.23V101.771H570.843ZM638.074 101.771V72.0666C638.074 67.974 636.952 64.7528 634.708 62.4029C632.464 60.0661 629.361 58.8978 625.4 58.8978C620.714 58.9638 617.037 60.614 614.37 63.8485C611.69 67.0829 610.35 71.1095 610.35 75.9282H607.182C607.182 69.3932 608.106 64.1455 609.954 60.185C611.802 56.2244 614.43 53.3332 617.836 51.5113C621.229 49.7027 625.235 48.7984 629.856 48.7984C633.949 48.7984 637.467 49.6235 640.411 51.2737C643.342 52.9239 645.586 55.2475 647.144 58.2443C648.689 61.2543 649.461 64.8716 649.461 69.0962V101.771H638.074ZM599.062 101.771V49.1944H610.449V101.771H599.062ZM712.236 49.1944V96.523C712.236 101.606 711.114 105.995 708.87 109.692C706.626 113.388 703.457 116.247 699.364 118.266C695.272 120.273 690.453 121.276 684.908 121.276C680.816 121.276 676.954 120.669 673.324 119.455C669.693 118.227 666.261 116.524 663.026 114.346L667.878 106.523C670.386 108.372 672.961 109.811 675.601 110.84C678.241 111.857 681.179 112.365 684.413 112.365C687.78 112.365 690.697 111.725 693.166 110.444C695.648 109.151 697.562 107.349 698.909 105.038C700.269 102.728 700.949 99.9885 700.949 96.8201V49.1944H712.236ZM683.126 48.7984C687.747 48.7323 691.688 49.7027 694.948 51.7094C698.222 53.7292 700.718 56.6205 702.434 60.383C704.15 64.1455 704.975 68.6671 704.909 73.9479C704.975 79.2286 704.163 83.7635 702.474 87.5524C700.797 91.3545 698.354 94.2589 695.146 96.2656C691.952 98.2855 688.077 99.2954 683.522 99.2954C678.769 99.2954 674.611 98.2195 671.046 96.0676C667.482 93.9289 664.709 90.9453 662.729 87.1167C660.749 83.2882 659.759 78.8656 659.759 73.8489C659.759 68.8982 660.729 64.5548 662.67 60.8186C664.623 57.0957 667.363 54.1583 670.888 52.0064C674.426 49.8677 678.505 48.7984 683.126 48.7984ZM685.799 57.5116C682.829 57.5116 680.189 58.2179 677.878 59.6305C675.568 61.0563 673.766 63.0234 672.472 65.5317C671.191 68.0401 670.518 70.9114 670.452 74.1459C670.518 77.3804 671.191 80.2518 672.472 82.7601C673.766 85.2685 675.548 87.2289 677.819 88.6415C680.103 90.0673 682.763 90.7802 685.799 90.7802C688.77 90.7802 691.39 90.0673 693.661 88.6415C695.945 87.2289 697.727 85.2685 699.008 82.7601C700.302 80.2518 700.949 77.3804 700.949 74.1459C700.949 70.8454 700.302 67.9608 699.008 65.4921C697.727 63.0101 695.945 61.0563 693.661 59.6305C691.39 58.2179 688.77 57.5116 685.799 57.5116Z" fill="white"/>
<path d="M748.078 32.4611H776.199C785.11 32.4611 791.988 34.5205 796.833 38.6395C801.692 42.7717 804.121 48.5673 804.121 56.0263C804.121 63.8153 801.692 69.8684 796.833 74.1854C791.988 78.5156 785.11 80.6807 776.199 80.6807H759.762V101.771H748.078V32.4611ZM759.762 70.6803H776.199C781.545 70.6803 785.684 69.5053 788.615 67.1554C791.559 64.8187 793.031 61.208 793.031 56.3233C793.031 51.6367 791.559 48.1514 788.615 45.8675C785.684 43.5968 781.545 42.4614 776.199 42.4614H759.762V70.6803ZM792.041 101.771L776.595 76.126H788.08L805.309 101.771H792.041ZM828.676 49.1943V78.8984C828.676 82.991 829.766 86.2056 831.944 88.5423C834.122 90.8922 837.126 92.0672 840.954 92.0672C845.509 91.9352 849.054 90.252 851.588 87.0175C854.136 83.7831 855.41 79.7895 855.41 75.0369H858.46C858.46 81.5058 857.575 86.7205 855.806 90.681C854.024 94.6416 851.496 97.5262 848.222 99.3348C844.961 101.157 841.086 102.101 836.598 102.167C832.571 102.167 829.119 101.341 826.241 99.6913C823.376 98.041 821.164 95.6977 819.607 92.6613C818.062 89.6249 817.29 86.0274 817.29 81.8688V49.1943H828.676ZM855.41 101.771V49.1943H866.797V101.771H855.41ZM921.928 101.771V72.0665C921.928 67.9079 920.839 64.6537 918.661 62.3037C916.483 59.967 913.446 58.7987 909.552 58.7987C904.997 58.9307 901.419 60.6139 898.818 63.8483C896.204 67.0828 894.897 71.0763 894.897 75.829H891.729C891.729 69.3601 892.64 64.1454 894.462 60.1848C896.27 56.2243 898.845 53.3331 902.185 51.5113C905.512 49.7026 909.453 48.7983 914.007 48.7983C918.034 48.7983 921.486 49.6234 924.364 51.2736C927.229 52.9239 929.44 55.2474 930.998 58.2442C932.543 61.2542 933.315 64.8715 933.315 69.0961V101.771H921.928ZM960.247 101.771V72.0665C960.247 67.9079 959.145 64.6537 956.94 62.3037C954.722 59.967 951.666 58.7987 947.771 58.7987C943.283 58.9307 939.751 60.6139 937.177 63.8483C934.602 67.0828 933.315 71.0763 933.315 75.829H930.048C930.048 69.3601 930.959 64.1454 932.78 60.1848C934.589 56.2243 937.164 53.3331 940.504 51.5113C943.831 49.7026 947.771 48.7983 952.326 48.7983C956.353 48.7983 959.805 49.6234 962.683 51.2736C965.548 52.9239 967.759 55.2474 969.317 58.2442C970.862 61.2542 971.634 64.8715 971.634 69.0961V101.771H960.247ZM883.61 101.771V49.1943H894.897V101.771H883.61ZM1019.85 78.3043H1004.11C1000.41 78.3043 997.675 78.8654 995.892 79.9876C994.11 81.1097 993.219 82.958 993.219 85.5323C993.219 87.9746 994.123 89.9219 995.932 91.3741C997.754 92.8263 1000.25 93.5524 1003.42 93.5524C1006.26 93.5524 1008.8 93.0573 1011.04 92.0672C1013.29 91.0771 1015.07 89.7371 1016.39 88.0473C1017.71 86.3706 1018.4 84.4762 1018.47 82.3639L1020.65 91.9682C1019 95.4007 1016.49 97.975 1013.12 99.6913C1009.75 101.407 1005.73 102.266 1001.04 102.266C997.279 102.266 994.011 101.54 991.239 100.087C988.466 98.6351 986.321 96.668 984.803 94.1861C983.285 91.7174 982.526 88.9648 982.526 85.9284C982.526 81.1757 984.262 77.3802 987.734 74.5418C991.193 71.7034 996.09 70.2512 1002.43 70.1852H1019.85V78.3043ZM1018.47 101.771L1018.37 68.403C1018.37 64.9705 1017.31 62.2971 1015.2 60.3829C1013.09 58.4686 1009.95 57.5115 1005.79 57.5115C1003.29 57.5115 1000.73 57.9735 998.13 58.8977C995.516 59.8218 992.889 61.175 990.249 62.9572L985.595 55.6302C988.037 54.112 990.348 52.8578 992.526 51.8677C994.704 50.8776 997.028 50.1185 999.497 49.5904C1001.98 49.0623 1004.9 48.7983 1008.27 48.7983C1015.07 48.7983 1020.3 50.4287 1023.95 53.6896C1027.62 56.9636 1029.49 61.472 1029.56 67.2148L1029.66 101.771H1018.47ZM1084.51 101.771V72.0665C1084.51 67.9739 1083.39 64.7527 1081.14 62.4028C1078.9 60.066 1075.8 58.8977 1071.84 58.8977C1067.15 58.9637 1063.47 60.6139 1060.79 63.8483C1058.12 67.0828 1056.79 71.1093 1056.79 75.928H1053.62C1053.62 69.3931 1054.54 64.1454 1056.39 60.1848C1058.24 56.2243 1060.86 53.3331 1064.25 51.5113C1067.66 49.7026 1071.67 48.7983 1076.29 48.7983C1080.39 48.7983 1083.9 49.6234 1086.83 51.2736C1089.77 52.9239 1092.02 55.2474 1093.56 58.2442C1095.12 61.2542 1095.9 64.8715 1095.9 69.0961V101.771H1084.51ZM1045.4 101.771V28.3025H1056.79V101.771H1045.4Z" fill="#FA896B"/>
</g>
</g>
<g clip-path="url(#clip8_413_1484)">
<g clip-path="url(#clip9_413_1484)">
<path d="M395.813 164.888H392.519V156.912H387.914V164.888H384.646V147.109H387.914V154.288H392.519V147.109H395.813V164.888ZM446.645 151.277H449.81V164.888H446.645V151.277ZM448.215 144.484C448.781 144.484 449.239 144.665 449.589 145.025C449.942 145.385 450.119 145.848 450.119 146.414C450.119 146.963 449.942 147.418 449.589 147.778C449.239 148.138 448.781 148.318 448.215 148.318C447.649 148.318 447.189 148.138 446.836 147.778C446.486 147.418 446.311 146.963 446.311 146.414C446.311 145.848 446.486 145.385 446.836 145.025C447.189 144.665 447.649 144.484 448.215 144.484ZM506.329 162.315L507.436 164.271C506.595 164.94 505.609 165.274 504.477 165.274C503.293 165.274 502.392 164.935 501.775 164.255C501.157 163.579 500.849 162.658 500.849 161.492V153.567H499.253V151.277H500.849V148.267L504.013 147.881V151.277H506.586L506.278 153.567H504.013V161.492C504.013 162.315 504.365 162.727 505.068 162.727C505.291 162.727 505.489 162.696 505.66 162.634C505.832 162.576 506.055 162.47 506.329 162.315ZM565.936 151.277V164.888H563.182L563.028 163.164C562.599 163.868 562.119 164.394 561.587 164.744C561.055 165.098 560.438 165.274 559.735 165.274C558.74 165.274 557.954 164.923 557.378 164.219C556.805 163.516 556.518 162.598 556.518 161.466V151.277H559.683V161.286C559.683 162.35 560.043 162.881 560.764 162.881C561.176 162.881 561.544 162.722 561.87 162.403C562.196 162.087 562.496 161.638 562.771 161.055V151.277H565.936ZM623.067 150.917C624.045 150.917 624.817 151.269 625.383 151.972C625.949 152.675 626.232 153.619 626.232 154.802V164.888H623.067V155.162C623.067 154.511 622.978 154.042 622.799 153.758C622.617 153.476 622.355 153.336 622.012 153.336C621.292 153.336 620.58 154.013 619.876 155.368V164.888H616.712V151.277H619.465L619.696 153.053C620.159 152.332 620.653 151.795 621.178 151.442C621.7 151.092 622.329 150.917 623.067 150.917ZM686.173 149.528L686.97 151.972C686.61 152.143 686.178 152.263 685.674 152.332C685.166 152.401 684.535 152.435 683.78 152.435C684.5 152.778 685.037 153.236 685.39 153.809C685.74 154.385 685.915 155.094 685.915 155.934C685.915 157.307 685.495 158.413 684.655 159.253C683.814 160.094 682.673 160.514 681.233 160.514C680.804 160.514 680.366 160.446 679.92 160.308C679.611 160.566 679.457 160.917 679.457 161.363C679.457 161.706 679.551 161.964 679.74 162.135C679.929 162.307 680.28 162.392 680.795 162.392H682.236C683.608 162.392 684.698 162.748 685.504 163.458C686.31 164.171 686.713 165.077 686.713 166.175C686.713 167.478 686.212 168.521 685.21 169.304C684.205 170.082 682.776 170.472 680.924 170.472C678.968 170.472 677.601 170.111 676.822 169.391C676.04 168.671 675.649 167.616 675.649 166.226H678.454C678.454 166.964 678.625 167.487 678.968 167.796C679.311 168.104 679.972 168.259 680.949 168.259C681.893 168.259 682.562 168.096 682.956 167.77C683.351 167.444 683.548 166.981 683.548 166.381C683.548 165.797 683.385 165.369 683.059 165.094C682.733 164.82 682.227 164.682 681.541 164.682H680.564C679.26 164.682 678.308 164.451 677.707 163.988C677.107 163.525 676.807 162.89 676.807 162.084C676.807 161.621 676.932 161.178 677.183 160.756C677.43 160.338 677.768 159.965 678.196 159.639C677.493 159.193 676.978 158.662 676.653 158.044C676.327 157.427 676.164 156.672 676.164 155.78C676.164 154.288 676.61 153.107 677.502 152.239C678.394 151.375 679.594 150.943 681.104 150.943C682.219 150.943 683.142 150.823 683.872 150.582C684.6 150.342 685.366 149.991 686.173 149.528ZM681.104 153.053C680.503 153.053 680.049 153.267 679.74 153.696C679.431 154.125 679.277 154.802 679.277 155.728C679.277 156.603 679.431 157.276 679.74 157.746C680.049 158.219 680.495 158.456 681.078 158.456C681.678 158.456 682.124 158.245 682.416 157.823C682.708 157.404 682.854 156.698 682.854 155.703C682.854 154.776 682.713 154.102 682.432 153.68C682.147 153.262 681.704 153.053 681.104 153.053Z" fill="#FA896B"/>
<path d="M855.191 164.888H851.666L848.527 157.71H848.218H846.958V164.888H843.69V147.109H847.884C852.172 147.109 854.316 148.85 854.316 152.332C854.316 153.413 854.076 154.37 853.596 155.204C853.116 156.034 852.395 156.663 851.435 157.092L855.191 164.888ZM848.038 155.343C849.05 155.343 849.783 155.102 850.236 154.622C850.692 154.142 850.92 153.378 850.92 152.332C850.92 151.354 850.683 150.637 850.21 150.181C849.74 149.728 848.965 149.502 847.884 149.502H846.958V155.343H848.038ZM913.949 151.277V164.888H911.195L911.041 163.164C910.612 163.868 910.132 164.394 909.6 164.744C909.068 165.098 908.451 165.274 907.748 165.274C906.753 165.274 905.967 164.923 905.391 164.219C904.818 163.516 904.531 162.598 904.531 161.466V151.277H907.696V161.286C907.696 162.35 908.056 162.881 908.777 162.881C909.188 162.881 909.557 162.722 909.883 162.403C910.209 162.087 910.509 161.638 910.784 161.055V151.277H913.949ZM976.9 150.917C977.809 150.917 978.538 151.269 979.087 151.972C979.636 152.675 979.91 153.619 979.91 154.802V164.888H976.797V155.137C976.797 154.485 976.711 154.017 976.54 153.732C976.368 153.451 976.12 153.31 975.794 153.31C975.125 153.31 974.481 153.945 973.864 155.214V164.888H970.776V155.137C970.776 153.919 970.45 153.31 969.798 153.31C969.095 153.31 968.443 153.945 967.843 155.214V164.888H964.73V151.277H967.483L967.689 153.027C968.581 151.62 969.653 150.917 970.905 150.917C971.54 150.917 972.088 151.114 972.552 151.509C973.015 151.903 973.366 152.461 973.607 153.181C974.516 151.672 975.614 150.917 976.9 150.917ZM1039.28 161.595C1039.28 162.041 1039.34 162.37 1039.46 162.583C1039.58 162.799 1039.78 162.976 1040.05 163.113L1039.41 165.223C1038.71 165.137 1038.14 164.948 1037.73 164.657C1037.3 164.365 1036.99 163.919 1036.78 163.319C1036 164.622 1034.89 165.274 1033.47 165.274C1032.33 165.274 1031.43 164.892 1030.76 164.127C1030.09 163.365 1029.76 162.35 1029.76 161.08C1029.76 159.605 1030.22 158.482 1031.14 157.71C1032.06 156.938 1033.39 156.552 1035.14 156.552H1036.19V155.6C1036.19 154.742 1036.04 154.137 1035.74 153.783C1035.44 153.433 1034.96 153.258 1034.29 153.258C1033.48 153.258 1032.48 153.481 1031.28 153.927L1030.56 151.869C1031.24 151.56 1031.96 151.323 1032.69 151.159C1033.43 150.998 1034.13 150.917 1034.8 150.917C1037.79 150.917 1039.28 152.426 1039.28 155.445V161.595ZM1034.31 162.984C1035.14 162.984 1035.76 162.418 1036.19 161.286V158.43H1035.45C1034.57 158.43 1033.93 158.627 1033.53 159.022C1033.13 159.416 1032.92 160.025 1032.92 160.849C1032.92 161.552 1033.04 162.084 1033.29 162.444C1033.53 162.804 1033.87 162.984 1034.31 162.984ZM1096.47 150.917C1097.45 150.917 1098.22 151.269 1098.78 151.972C1099.35 152.675 1099.63 153.619 1099.63 154.802V164.888H1096.47V155.162C1096.47 154.511 1096.38 154.042 1096.2 153.758C1096.02 153.476 1095.76 153.336 1095.41 153.336C1094.69 153.336 1093.98 154.013 1093.28 155.368V164.888H1090.11V145.848L1093.28 145.514V152.898C1093.71 152.229 1094.17 151.732 1094.68 151.406C1095.19 151.08 1095.78 150.917 1096.47 150.917Z" fill="white"/>
</g>
</g>
</g>
</g>
<g clip-path="url(#clip10_413_1484)">
<g clip-path="url(#clip11_413_1484)">
<path d="M98.4586 101.557H0.963026V199.053H98.4586V101.557Z" fill="#DC8359"/>
<path d="M174.664 50.7787L99.9214 97.4952H5.99532L80.7499 50.7787H174.664Z" fill="#DC8359"/>
<path d="M260.943 98.3945L102.521 197.423V100.658L260.943 1.62488V98.3945Z" fill="#DC8359"/>
<path d="M263.512 101.557H357.468L282.713 148.274H188.799L263.512 101.557Z" fill="#DC8359"/>
<path d="M362.508 0H265.009V97.4956H362.508V0Z" fill="#DC8359"/>
</g>
</g>
</g>
</g>
</g>
</g>
<defs>
<clipPath id="clip0_413_1484">
<rect width="1101.93" height="200" fill="white"/>
</clipPath>
<clipPath id="clip1_413_1484">
<rect width="1101.93" height="200" fill="white" transform="translate(-0.667805 -0.473267)"/>
</clipPath>
<clipPath id="clip2_413_1484">
<rect width="1098.67" height="199.053" fill="white" transform="translate(0.963039)"/>
</clipPath>
<clipPath id="clip3_413_1484">
<rect width="1098.67" height="199.053" fill="white" transform="translate(0.963039)"/>
</clipPath>
<clipPath id="clip4_413_1484">
<rect width="714.986" height="144.032" fill="white" transform="translate(384.646 27.5104)"/>
</clipPath>
<clipPath id="clip5_413_1484">
<rect width="714.986" height="144.032" fill="white" transform="translate(384.646 27.5104)"/>
</clipPath>
<clipPath id="clip6_413_1484">
<rect width="714.986" height="93.7661" fill="white" transform="translate(384.646 27.5104)"/>
</clipPath>
<clipPath id="clip7_413_1484">
<rect width="714.986" height="93.7661" fill="white" transform="translate(384.646 27.5104)"/>
</clipPath>
<clipPath id="clip8_413_1484">
<rect width="714.986" height="28.1298" fill="white" transform="translate(384.646 143.413)"/>
</clipPath>
<clipPath id="clip9_413_1484">
<rect width="714.986" height="28.1298" fill="white" transform="translate(384.646 143.413)"/>
</clipPath>
<clipPath id="clip10_413_1484">
<rect width="361.546" height="199.053" fill="white" transform="translate(0.963039)"/>
</clipPath>
<clipPath id="clip11_413_1484">
<rect width="361.546" height="199.053" fill="white" transform="translate(0.963039)"/>
</clipPath>
</defs>
</svg>
